<?xml version="1.0" encoding="utf-8"?>
<!-- Generator: Adobe Illustrator 23.0.3, SVG Export Plug-In . SVG Version: 6.00 Build 0)  -->
<svg version="1.1" id="Слой_1" xmlns="http://www.w3.org/2000/svg" xmlns:xlink="http://www.w3.org/1999/xlink" x="0px" y="0px"
	 viewBox="0 0 42.4 29.9" style="enable-background:new 0 0 42.4 29.9;" xml:space="preserve">
<g>
	<path d="M4.9,4.9H0V0h4.9V4.9z M4.9,11.2H0V6.3h4.9V11.2z M4.9,17.4H0v-4.9h4.9V17.4z M4.9,23.7H0v-4.9h4.9V23.7z M4.9,29.9H0V25
		h4.9V29.9z M11.2,17.4H6.3v-4.9h4.9V17.4z M17.4,4.9h-4.9V0h4.9V4.9z M17.4,11.2h-4.9V6.3h4.9V11.2z M17.4,17.4h-4.9v-4.9h4.9V17.4
		z M17.4,23.7h-4.9v-4.9h4.9V23.7z M17.4,29.9h-4.9V25h4.9V29.9z"/>
	<path d="M29.9,4.9H25V0h4.9V4.9z M29.9,11.2H25V6.3h4.9V11.2z M29.9,23.7H25v-4.9h4.9V23.7z M29.9,29.9H25V25h4.9V29.9z M36.2,17.4
		h-4.9v-4.9h4.9V17.4z M42.4,4.9h-4.9V0h4.9V4.9z M42.4,11.2h-4.9V6.3h4.9V11.2z M42.4,23.7h-4.9v-4.9h4.9V23.7z M42.4,29.9h-4.9V25
		h4.9V29.9z"/>
</g>
</svg>
