<?xml version="1.0" encoding="utf-8"?>
<!-- Generator: Adobe Illustrator 23.0.3, SVG Export Plug-In . SVG Version: 6.00 Build 0)  -->
<svg version="1.1" id="Layer_1" xmlns="http://www.w3.org/2000/svg" xmlns:xlink="http://www.w3.org/1999/xlink" x="0px" y="0px"
	 viewBox="0 0 512 512" style="enable-background:new 0 0 512 512;" xml:space="preserve">
<style type="text/css">
	.st0{fill:#4CA1AF;}
</style>
<path class="st0" d="M288,256c0,17.7-14.3,32-32,32s-32-14.3-32-32s14.3-32,32-32S288,238.3,288,256z M362.7,224
	c-17.7,0-32,14.3-32,32s14.3,32,32,32s32-14.3,32-32S380.3,224,362.7,224z M149.3,224c-17.7,0-32,14.3-32,32s14.3,32,32,32
	s32-14.3,32-32S167,224,149.3,224z M512,263.3v142.1c0,58.8-47.9,106.7-106.7,106.7H279.1C129.7,512,10,409.8,0.6,274.2
	C-4.5,200,22.5,127.5,74.8,75.1s124.9-79.5,199-74.5C407.4,9.7,512,125.1,512,263.3L512,263.3z M469.3,263.3
	c0-115.9-87.1-212.5-198.4-220.1c-4.9-0.3-9.8-0.5-14.6-0.5c-56.7,0-111.1,22.4-151.3,62.6c-43.6,43.6-66.2,104.2-61.8,166
	c8,114.8,107.2,198.1,235.9,198.1h126.2c35.3,0,64-28.7,64-64V263.3L469.3,263.3z"/>
</svg>
