<svg width="24" height="20" viewBox="0 0 24 20" fill="none" xmlns="http://www.w3.org/2000/svg">
<path d="M2.03251 7.60875C4.62001 5.12625 8.13001 3.6 12 3.6C15.87 3.6 19.38 5.12625 21.9675 7.60875C22.4475 8.06625 23.205 8.05125 23.6625 7.575C24.12 7.09875 24.105 6.3375 23.6288 5.88C20.6138 2.98125 16.515 1.2 12 1.2C7.48501 1.2 3.38626 2.98125 0.367514 5.87625C-0.108736 6.3375 -0.123736 7.095 0.333764 7.575C0.791264 8.055 1.55251 8.07 2.02876 7.60875H2.03251ZM12 9.6C14.13 9.6 16.0725 10.3912 17.5575 11.7C18.0563 12.1387 18.8138 12.09 19.2525 11.595C19.6913 11.1 19.6425 10.3387 19.1475 9.9C17.2425 8.22 14.7375 7.2 12 7.2C9.26251 7.2 6.75751 8.22 4.85626 9.9C4.35751 10.3387 4.31251 11.0962 4.75126 11.595C5.19001 12.0937 5.94751 12.1387 6.44626 11.7C7.92751 10.3912 9.87002 9.6 12.0038 9.6H12ZM14.4 15.6C14.4 14.9635 14.1472 14.353 13.6971 13.9029C13.247 13.4529 12.6365 13.2 12 13.2C11.3635 13.2 10.753 13.4529 10.303 13.9029C9.85287 14.353 9.60001 14.9635 9.60001 15.6C9.60001 16.2365 9.85287 16.847 10.303 17.2971C10.753 17.7471 11.3635 18 12 18C12.6365 18 13.247 17.7471 13.6971 17.2971C14.1472 16.847 14.4 16.2365 14.4 15.6Z" fill="black"/>
</svg>
