<?xml version="1.0" encoding="utf-8"?>
<!-- Generator: Adobe Illustrator 23.0.3, SVG Export Plug-In . SVG Version: 6.00 Build 0)  -->
<svg version="1.1" id="Слой_1" xmlns="http://www.w3.org/2000/svg" xmlns:xlink="http://www.w3.org/1999/xlink" x="0px" y="0px"
	 viewBox="0 0 24 20" style="enable-background:new 0 0 24 20;" xml:space="preserve">
<style type="text/css">
	.st0{fill:#BA380F;}
</style>
<path class="st0" d="M2,7.6c2.6-2.5,6.1-4,10-4c3.9,0,7.4,1.5,10,4c0.5,0.5,1.2,0.4,1.7,0c0.5-0.5,0.4-1.2,0-1.7
	C20.6,3,16.5,1.2,12,1.2C7.5,1.2,3.4,3,0.4,5.9c-0.5,0.5-0.5,1.2,0,1.7S1.6,8.1,2,7.6L2,7.6z M12,9.6c2.1,0,4.1,0.8,5.6,2.1
	c0.5,0.4,1.3,0.4,1.7-0.1c0.4-0.5,0.4-1.3-0.1-1.7c-1.9-1.7-4.4-2.7-7.1-2.7c-2.7,0-5.2,1-7.1,2.7c-0.5,0.4-0.5,1.2-0.1,1.7
	c0.4,0.5,1.2,0.5,1.7,0.1C7.9,10.4,9.9,9.6,12,9.6L12,9.6z M14.4,15.6c0-0.6-0.3-1.2-0.7-1.7c-0.5-0.4-1.1-0.7-1.7-0.7
	s-1.2,0.3-1.7,0.7c-0.5,0.5-0.7,1.1-0.7,1.7c0,0.6,0.3,1.2,0.7,1.7c0.4,0.5,1.1,0.7,1.7,0.7s1.2-0.3,1.7-0.7
	C14.1,16.8,14.4,16.2,14.4,15.6z"/>
</svg>
