<svg width="92" height="103" viewBox="0 0 92 103" fill="none" xmlns="http://www.w3.org/2000/svg">
<path d="M4.57031 84.5234H1.99219V81.9453H4.57031V84.5234ZM11.1328 84.5234H8.55469V81.9453H11.1328V84.5234ZM4.57031 87.8047H1.99219V85.2266H4.57031V87.8047ZM11.1328 87.8047H8.55469V85.2266H11.1328V87.8047ZM4.57031 91.0859H1.99219V88.5078H4.57031V91.0859ZM7.85156 91.0859H5.27344V88.5078H7.85156V91.0859ZM11.1328 91.0859H8.55469V88.5078H11.1328V91.0859ZM4.57031 94.3672H1.99219V91.7891H4.57031V94.3672ZM11.1328 94.3672H8.55469V91.7891H11.1328V94.3672ZM4.57031 97.6484H1.99219V95.0703H4.57031V97.6484ZM11.1328 97.6484H8.55469V95.0703H11.1328V97.6484ZM17.6953 84.5234H15.1172V81.9453H17.6953V84.5234ZM20.9766 84.5234H18.3984V81.9453H20.9766V84.5234ZM24.2578 84.5234H21.6797V81.9453H24.2578V84.5234ZM17.6953 87.8047H15.1172V85.2266H17.6953V87.8047ZM17.6953 91.0859H15.1172V88.5078H17.6953V91.0859ZM20.9766 91.0859H18.3984V88.5078H20.9766V91.0859ZM24.2578 91.0859H21.6797V88.5078H24.2578V91.0859ZM17.6953 94.3672H15.1172V91.7891H17.6953V94.3672ZM17.6953 97.6484H15.1172V95.0703H17.6953V97.6484ZM20.9766 97.6484H18.3984V95.0703H20.9766V97.6484ZM24.2578 97.6484H21.6797V95.0703H24.2578V97.6484ZM30.8203 84.5234H28.2422V81.9453H30.8203V84.5234ZM37.3828 84.5234H34.8047V81.9453H37.3828V84.5234ZM30.8203 87.8047H28.2422V85.2266H30.8203V87.8047ZM37.3828 87.8047H34.8047V85.2266H37.3828V87.8047ZM34.1016 91.0859H31.5234V88.5078H34.1016V91.0859ZM30.8203 94.3672H28.2422V91.7891H30.8203V94.3672ZM37.3828 94.3672H34.8047V91.7891H37.3828V94.3672ZM30.8203 97.6484H28.2422V95.0703H30.8203V97.6484ZM37.3828 97.6484H34.8047V95.0703H37.3828V97.6484ZM47.2266 84.5234H44.6484V81.9453H47.2266V84.5234ZM43.9453 87.8047H41.3672V85.2266H43.9453V87.8047ZM50.5078 87.8047H47.9297V85.2266H50.5078V87.8047ZM43.9453 91.0859H41.3672V88.5078H43.9453V91.0859ZM47.2266 91.0859H44.6484V88.5078H47.2266V91.0859ZM50.5078 91.0859H47.9297V88.5078H50.5078V91.0859ZM43.9453 94.3672H41.3672V91.7891H43.9453V94.3672ZM50.5078 94.3672H47.9297V91.7891H50.5078V94.3672ZM43.9453 97.6484H41.3672V95.0703H43.9453V97.6484ZM50.5078 97.6484H47.9297V95.0703H50.5078V97.6484ZM57.0703 84.5234H54.4922V81.9453H57.0703V84.5234ZM60.3516 84.5234H57.7734V81.9453H60.3516V84.5234ZM57.0703 87.8047H54.4922V85.2266H57.0703V87.8047ZM63.6328 87.8047H61.0547V85.2266H63.6328V87.8047ZM57.0703 91.0859H54.4922V88.5078H57.0703V91.0859ZM60.3516 91.0859H57.7734V88.5078H60.3516V91.0859ZM57.0703 94.3672H54.4922V91.7891H57.0703V94.3672ZM57.0703 97.6484H54.4922V95.0703H57.0703V97.6484ZM73.4766 84.5234H70.8984V81.9453H73.4766V84.5234ZM70.1953 87.8047H67.6172V85.2266H70.1953V87.8047ZM76.7578 87.8047H74.1797V85.2266H76.7578V87.8047ZM70.1953 91.0859H67.6172V88.5078H70.1953V91.0859ZM76.7578 91.0859H74.1797V88.5078H76.7578V91.0859ZM70.1953 94.3672H67.6172V91.7891H70.1953V94.3672ZM76.7578 94.3672H74.1797V91.7891H76.7578V94.3672ZM73.4766 97.6484H70.8984V95.0703H73.4766V97.6484ZM83.3203 84.5234H80.7422V81.9453H83.3203V84.5234ZM86.6016 84.5234H84.0234V81.9453H86.6016V84.5234ZM83.3203 87.8047H80.7422V85.2266H83.3203V87.8047ZM89.8828 87.8047H87.3047V85.2266H89.8828V87.8047ZM83.3203 91.0859H80.7422V88.5078H83.3203V91.0859ZM89.8828 91.0859H87.3047V88.5078H89.8828V91.0859ZM83.3203 94.3672H80.7422V91.7891H83.3203V94.3672ZM89.8828 94.3672H87.3047V91.7891H89.8828V94.3672ZM83.3203 97.6484H80.7422V95.0703H83.3203V97.6484ZM86.6016 97.6484H84.0234V95.0703H86.6016V97.6484Z" fill="#BBBBBB"/>
<path d="M22.3616 24.5491H15.3884V17.5759H22.3616V24.5491ZM40.1116 24.5491H33.1384V17.5759H40.1116V24.5491ZM22.3616 33.4241H15.3884V26.4509H22.3616V33.4241ZM40.1116 33.4241H33.1384V26.4509H40.1116V33.4241ZM22.3616 42.2991H15.3884V35.3259H22.3616V42.2991ZM31.2366 42.2991H24.2634V35.3259H31.2366V42.2991ZM40.1116 42.2991H33.1384V35.3259H40.1116V42.2991ZM22.3616 51.1741H15.3884V44.2009H22.3616V51.1741ZM40.1116 51.1741H33.1384V44.2009H40.1116V51.1741ZM22.3616 60.0491H15.3884V53.0759H22.3616V60.0491ZM40.1116 60.0491H33.1384V53.0759H40.1116V60.0491ZM57.8616 24.5491H50.8884V17.5759H57.8616V24.5491ZM75.6116 24.5491H68.6384V17.5759H75.6116V24.5491ZM57.8616 33.4241H50.8884V26.4509H57.8616V33.4241ZM75.6116 33.4241H68.6384V26.4509H75.6116V33.4241ZM66.7366 42.2991H59.7634V35.3259H66.7366V42.2991ZM57.8616 51.1741H50.8884V44.2009H57.8616V51.1741ZM75.6116 51.1741H68.6384V44.2009H75.6116V51.1741ZM57.8616 60.0491H50.8884V53.0759H57.8616V60.0491ZM75.6116 60.0491H68.6384V53.0759H75.6116V60.0491Z" fill="#BBBBBB"/>
</svg>
