<?xml version="1.0" encoding="utf-8"?>
<!-- Generator: Adobe Illustrator 23.0.3, SVG Export Plug-In . SVG Version: 6.00 Build 0)  -->
<svg version="1.1" id="Layer_1" xmlns="http://www.w3.org/2000/svg" xmlns:xlink="http://www.w3.org/1999/xlink" x="0px" y="0px"
	 viewBox="0 0 512 512" style="enable-background:new 0 0 512 512;" xml:space="preserve">
<style type="text/css">
	.st0{fill:#4CA1AF;}
</style>
<path class="st0" d="M405.3,0H106.7C47.9,0,0,47.9,0,106.7v298.7C0,464.1,47.9,512,106.7,512h298.7c58.8,0,106.7-47.9,106.7-106.7
	V106.7C512,47.9,464.1,0,405.3,0z M469.3,405.3c0,35.3-28.7,64-64,64H106.7c-35.3,0-64-28.7-64-64V106.7c0-35.3,28.7-64,64-64h298.7
	c35.3,0,64,28.7,64,64v298.6H469.3z M296.1,136.1L153,279.2c-16.1,16.1-25,37.5-25,60.3v33.8c0,11.8,9.6,21.3,21.3,21.3h33.8
	c22.8,0,44.2-8.9,60.3-25l143.1-143.1c25-25,25-65.5,0-90.5C362.4,111.9,320.2,111.9,296.1,136.1L296.1,136.1z M213.3,339.5
	c-8,7.9-18.9,12.5-30.2,12.5h-12.5v-12.5c0-11.4,4.4-22.1,12.5-30.2l90.7-90.7l30.2,30.2L213.3,339.5z M356.4,196.4l-22.3,22.3
	L304,188.5l22.3-22.3c8-8.1,22.1-8.1,30.2,0C364.7,174.6,364.7,188.1,356.4,196.4L356.4,196.4z"/>
</svg>
