<?xml version="1.0" encoding="utf-8"?>
<!-- Generator: Adobe Illustrator 23.0.3, SVG Export Plug-In . SVG Version: 6.00 Build 0)  -->
<svg version="1.1" id="Filled" xmlns="http://www.w3.org/2000/svg" xmlns:xlink="http://www.w3.org/1999/xlink" x="0px" y="0px"
	 viewBox="0 0 512 512" style="enable-background:new 0 0 512 512;" xml:space="preserve">
<style type="text/css">
	.st0{fill:#FDFEFE;stroke:#4CA1AF;stroke-width:40;stroke-linecap:round;stroke-linejoin:round;stroke-miterlimit:10;}
</style>
<path class="st0" d="M466.4,264.9c16.3-11.9,25.8-30.8,25.9-50.9c0.1-34.9-28.2-63.1-63-63.2h-85.5l-25.9-81
	c-6.2-19.4-21.4-34.6-40.8-40.8c-33.2-10.6-68.8,7.6-79.4,40.8l-25.9,81H86c-20.1,0-39,9.6-50.9,25.9
	c-20.6,28.1-14.4,67.6,13.7,88.2l69.7,50.9l-26.5,81.9c-6.2,19.3-2.8,40.4,9.3,56.8c20.7,28.1,60.2,34.1,88.3,13.4l68.1-50.1
	l68.1,50.1c21.9,16.6,52.2,16.8,74.3,0.4c22.5-15.9,32-44.6,23.2-70.7l-26.5-81.9L466.4,264.9L466.4,264.9z"/>
</svg>
