<?xml version="1.0" encoding="utf-8"?>
<!-- Generator: Adobe Illustrator 23.0.3, SVG Export Plug-In . SVG Version: 6.00 Build 0)  -->
<svg version="1.1" id="Filled" xmlns="http://www.w3.org/2000/svg" xmlns:xlink="http://www.w3.org/1999/xlink" x="0px" y="0px"
	 viewBox="0 0 512 512" style="enable-background:new 0 0 512 512;" xml:space="preserve">
<style type="text/css">
	.st0{fill:none;stroke:#4CA1AF;stroke-width:40;stroke-linecap:round;stroke-linejoin:round;stroke-miterlimit:10;}
</style>
<path class="st0" d="M465.9,268.1c16.4-12,26-31,26.1-51.2c0.1-35.1-28.3-63.5-63.4-63.6h-85.9L316.6,72
	c-6.3-19.5-21.6-34.8-41.1-41.1c-33.4-10.7-69.2,7.6-79.9,41.1l-26.1,81.4H83.4c-20.2,0-39.2,9.7-51.2,26.1
	c-20.7,28.2-14.5,68,13.8,88.7l70.1,51.2l-26.7,82.4c-6.3,19.4-2.8,40.7,9.3,57.1c20.8,28.2,60.6,34.3,88.8,13.5L256,422l68.5,50.4
	c22,16.7,52.5,16.9,74.8,0.4c22.6-16,32.1-44.9,23.3-71.1L396,319.3L465.9,268.1L465.9,268.1z"/>
</svg>
