<?xml version="1.0" encoding="utf-8"?>
<!-- Generator: Adobe Illustrator 23.0.3, SVG Export Plug-In . SVG Version: 6.00 Build 0)  -->
<svg version="1.1" id="Filled" xmlns="http://www.w3.org/2000/svg" xmlns:xlink="http://www.w3.org/1999/xlink" x="0px" y="0px"
	 viewBox="0 0 512 512" style="enable-background:new 0 0 512 512;" xml:space="preserve">
<style type="text/css">
	.st0{fill:url(#SVGID_1_);}
</style>
<radialGradient id="SVGID_1_" cx="317" cy="378" r="338.7226" fx="350.451" fy="380.382" gradientTransform="matrix(1 0 0 -1 0 514)" gradientUnits="userSpaceOnUse">
	<stop  offset="0" style="stop-color:#FFFFFF"/>
	<stop  offset="0" style="stop-color:#F7FCFC"/>
	<stop  offset="2.003848e-02" style="stop-color:#E2F4F2"/>
	<stop  offset="6.066095e-02" style="stop-color:#C0E7E3"/>
	<stop  offset="0.158" style="stop-color:#90D5CE"/>
	<stop  offset="0.3414" style="stop-color:#54BEB3"/>
	<stop  offset="0.3989" style="stop-color:#4CBBAF"/>
	<stop  offset="0.6338" style="stop-color:#4CA1AF"/>
</radialGradient>
<path class="st0" d="M28.3,264.5l75.9,55.5l-28.8,89.3c-9.6,28.5,0.7,59.8,25.3,77.1c24.1,17.8,57.1,17.7,81.1-0.4l74.3-54.7
	l74.3,54.6c30.6,22.5,73.7,16,96.2-14.7c13.1-17.8,16.9-40.9,10.1-61.9l-29-89.3l75.9-55.5c30.7-22.4,37.4-65.5,14.9-96.2
	c-12.9-17.7-33.5-28.2-55.5-28.2h-93.3l-28.3-88.2C310,15.7,271.2-4.3,235,7.3c-21.2,6.8-37.8,23.4-44.5,44.5L162.2,140H68.9
	c-38,0.1-68.8,30.9-68.7,68.9C0.2,231,10.7,251.6,28.3,264.5L28.3,264.5z"/>
</svg>
