<?xml version="1.0" encoding="utf-8"?>
<!-- Generator: Adobe Illustrator 23.0.3, SVG Export Plug-In . SVG Version: 6.00 Build 0)  -->
<svg version="1.1" id="Filled" xmlns="http://www.w3.org/2000/svg" xmlns:xlink="http://www.w3.org/1999/xlink" x="0px" y="0px"
	 viewBox="0 0 512 512" style="enable-background:new 0 0 512 512;" xml:space="preserve">
<style type="text/css">
	.st0{fill:url(#SVGID_1_);}
</style>
<radialGradient id="SVGID_1_" cx="317" cy="378" r="338.7226" fx="350.451" fy="380.382" gradientTransform="matrix(-1 0 0 -1 512.0166 514)" gradientUnits="userSpaceOnUse">
	<stop  offset="0" style="stop-color:#FFFFFF"/>
	<stop  offset="0" style="stop-color:#F7FCFC"/>
	<stop  offset="2.003848e-02" style="stop-color:#E2F4F2"/>
	<stop  offset="6.066095e-02" style="stop-color:#C0E7E3"/>
	<stop  offset="0.158" style="stop-color:#90D5CE"/>
	<stop  offset="0.3414" style="stop-color:#54BEB3"/>
	<stop  offset="0.3989" style="stop-color:#4CBBAF"/>
	<stop  offset="0.6338" style="stop-color:#4CA1AF"/>
</radialGradient>
<path class="st0" d="M483.7,264.5c17.6-12.9,28.1-33.5,28.1-55.6c0.1-38-30.7-68.8-68.7-68.9h-93.3l-28.3-88.2
	c-6.7-21.1-23.3-37.7-44.5-44.5c-36.2-11.6-75,8.4-86.4,44.6l-28.3,88.2H69c-22,0-42.6,10.5-55.5,28.2C-9,199-2.3,242.1,28.4,264.5
	l75.9,55.5l-29,89.3c-6.8,21-3,44.1,10.1,61.9c22.5,30.7,65.6,37.2,96.2,14.7l74.3-54.6l74.3,54.7c24,18.1,57,18.2,81.1,0.4
	c24.6-17.3,34.9-48.6,25.3-77.1L407.8,320L483.7,264.5L483.7,264.5z"/>
</svg>
